<svg width="232" height="85" viewBox="0 0 232 85" fill="none" xmlns="http://www.w3.org/2000/svg">
<g id="Group">
<g id="Group_2">
<path id="Vector" d="M0 59.8657V38.6179H8.50751C10.0708 38.6179 11.3744 38.8496 12.4189 39.3131C13.4634 39.7765 14.2483 40.4182 14.774 41.2374C15.2998 42.0571 15.5624 42.9998 15.5624 44.0647C15.5624 44.8949 15.3964 45.6227 15.0646 46.2486C14.7327 46.8745 14.2774 47.3863 13.7004 47.7839C13.1228 48.1816 12.4637 48.4634 11.7237 48.6293V48.8366C12.533 48.8715 13.2923 49.0998 14.0008 49.5213C14.71 49.9434 15.2858 50.5326 15.7283 51.2901C16.1708 52.0476 16.392 52.9483 16.392 53.9928C16.392 55.12 16.1137 56.1249 15.5565 57.007C14.9999 57.8891 14.1784 58.586 13.0926 59.0978C12.0067 59.6096 10.6682 59.8657 9.07751 59.8657H0ZM4.49247 47.5091H7.82281C8.43823 47.5091 8.98669 47.4002 9.46702 47.1825C9.94794 46.9647 10.3281 46.655 10.6082 46.2538C10.8882 45.8527 11.0286 45.3718 11.0286 44.8117C11.0286 44.0437 10.7572 43.4248 10.214 42.9543C9.6708 42.4839 8.90168 42.2487 7.90549 42.2487H4.49189V47.5091H4.49247ZM4.49247 56.193H8.15468C9.40647 56.193 10.3194 55.9526 10.8935 55.4722C11.4676 54.9913 11.7546 54.3503 11.7546 53.5474C11.7546 52.9593 11.6125 52.4412 11.329 51.9911C11.0454 51.5416 10.6425 51.1888 10.1203 50.9326C9.59802 50.677 8.97737 50.5489 8.25774 50.5489H4.49189V56.193H4.49247Z" fill="#342C4B"/>
<path id="Vector_2" d="M33.3366 53.0285V51.8145C33.3366 50.4591 33.1462 49.2743 32.766 48.2612C32.3858 47.2481 31.8548 46.4057 31.1736 45.7349C30.4924 45.0642 29.6971 44.5612 28.7877 44.2252C27.8782 43.8899 26.8978 43.7222 25.8463 43.7222C24.283 43.7222 22.9223 44.068 21.7637 44.7597C20.605 45.4514 19.7078 46.4161 19.0715 47.6545C18.4351 48.8929 18.1172 50.331 18.1172 51.9706C18.1172 53.6101 18.4351 55.1059 19.0715 56.3332C19.7078 57.5611 20.6155 58.5084 21.7951 59.1762C22.9741 59.8441 24.3837 60.1777 26.0233 60.1777C27.3373 60.1777 28.4977 59.9756 29.5038 59.571C30.5099 59.1663 31.3332 58.5992 31.973 57.8697C32.6129 57.1402 33.0362 56.2843 33.244 55.3021L29.1562 55.0325C29.0043 55.4337 28.783 55.7725 28.4925 56.0491C28.202 56.3256 27.8526 56.5335 27.4445 56.6715C27.0363 56.8101 26.5869 56.8788 26.096 56.8788C25.356 56.8788 24.7162 56.7233 24.1764 56.4118C23.6367 56.1003 23.2204 55.6578 22.9264 55.0838C22.6324 54.5097 22.4856 53.8285 22.4856 53.0401V53.0297H33.3378L33.3366 53.0285ZM24.1392 47.4834C24.6544 47.1754 25.2477 47.0217 25.9185 47.0217C26.5892 47.0217 27.1272 47.162 27.6151 47.442C28.103 47.7221 28.4849 48.1081 28.7615 48.5989C29.038 49.0903 29.1766 49.6539 29.1766 50.2903H22.4891C22.5159 49.7179 22.6626 49.1939 22.931 48.7183C23.2216 48.203 23.6245 47.7914 24.1397 47.4834H24.1392Z" fill="#342C4B"/>
<path id="Vector_3" d="M40.4136 60.1666C39.397 60.1666 38.4905 59.9884 37.6952 59.6321C36.8999 59.2758 36.2722 58.7466 35.8123 58.045C35.3523 57.3428 35.1223 56.4666 35.1223 55.415C35.1223 54.5301 35.2848 53.786 35.6102 53.1845C35.9351 52.5825 36.3782 52.0987 36.9383 51.7319C37.4984 51.3651 38.1365 51.0885 38.8526 50.9016C39.5688 50.7147 40.321 50.5837 41.1094 50.5074C42.0363 50.4108 42.7833 50.3188 43.3504 50.2326C43.9174 50.1465 44.3291 50.0166 44.5853 49.8437C44.8409 49.6708 44.9689 49.4152 44.9689 49.0758V49.0135C44.9689 48.3567 44.7628 47.8478 44.3518 47.4886C43.9402 47.1288 43.3573 46.9489 42.6034 46.9489C41.808 46.9489 41.1752 47.1235 40.7047 47.4729C40.2343 47.8222 39.9228 48.26 39.7708 48.7852L35.683 48.4534C35.8903 47.4851 36.2984 46.6467 36.9074 45.9375C37.5159 45.2284 38.303 44.6823 39.2678 44.298C40.2325 43.9143 41.3516 43.7222 42.6243 43.7222C43.5099 43.7222 44.3588 43.8258 45.1716 44.0337C45.9844 44.2409 46.7069 44.5629 47.3398 44.9984C47.9727 45.4339 48.4722 45.9929 48.839 46.6741C49.2052 47.3553 49.3886 48.1698 49.3886 49.1171V59.8656H45.1972V57.6555H45.0726C44.8164 58.1533 44.4741 58.5911 44.0455 58.9678C43.6164 59.3451 43.1012 59.6385 42.4997 59.8499C41.8977 60.0606 41.2031 60.166 40.4142 60.166L40.4136 60.1666ZM41.6794 57.1163C42.3291 57.1163 42.9038 56.9865 43.4016 56.7274C43.8994 56.4683 44.2901 56.1172 44.5742 55.6741C44.8577 55.2316 44.9998 54.7298 44.9998 54.1697V52.4783C44.8612 52.568 44.6732 52.6495 44.4345 52.7222C44.1958 52.795 43.9279 52.8608 43.6304 52.9196C43.3329 52.9784 43.0354 53.0302 42.7384 53.0751C42.4409 53.1199 42.1713 53.1601 41.9291 53.1944C41.4104 53.2707 40.9574 53.3918 40.5702 53.5577C40.183 53.7237 39.882 53.9467 39.6678 54.2267C39.4535 54.5068 39.3464 54.8544 39.3464 55.2695C39.3464 55.8709 39.5659 56.3297 40.0055 56.6441C40.4445 56.9591 41.0028 57.1163 41.6811 57.1163H41.6794Z" fill="#342C4B"/>
<path id="Vector_4" d="M56.8906 38.6179V59.8657H52.4709V38.6179H56.8906Z" fill="#342C4B"/>
<g id="Group_3">
<path id="Vector_5" d="M74.531 53.0285V51.8145C74.531 50.4591 74.3406 49.2743 73.9604 48.2612C73.5802 47.2481 73.0492 46.4057 72.368 45.7349C71.6868 45.0642 70.8909 44.5612 69.982 44.2252C69.0726 43.8899 68.0921 43.7222 67.0406 43.7222C65.4773 43.7222 64.1166 44.068 62.958 44.7597C61.7994 45.4514 60.9022 46.4161 60.2658 47.6545C59.6294 48.8929 59.3115 50.331 59.3115 51.9706C59.3115 53.6101 59.6294 55.1059 60.2658 56.3332C60.9022 57.5611 61.8099 58.5084 62.9895 59.1762C64.1685 59.8441 65.578 60.1777 67.2176 60.1777C68.5317 60.1777 69.6921 59.9756 70.6982 59.571C71.7042 59.1663 72.5275 58.5992 73.1674 57.8697C73.8072 57.1402 74.2305 56.2843 74.4384 55.3021L70.3506 55.0325C70.1986 55.4337 69.9768 55.7725 69.6868 56.0491C69.3963 56.3256 69.047 56.5335 68.6388 56.6715C68.2307 56.8101 67.7812 56.8788 67.2904 56.8788C66.5504 56.8788 65.9105 56.7233 65.3708 56.4118C64.831 56.1003 64.4148 55.6578 64.1207 55.0838C63.8267 54.5097 63.68 53.8285 63.68 53.0401V53.0297H74.5321L74.531 53.0285ZM65.3335 47.4834C65.8488 47.1754 66.4421 47.0217 67.1128 47.0217C67.7835 47.0217 68.3215 47.162 68.8094 47.442C69.2973 47.7221 69.6793 48.1081 69.9558 48.5989C70.2324 49.0903 70.3709 49.6539 70.3709 50.2903H63.6835C63.7103 49.7179 63.857 49.1939 64.1254 48.7183C64.4159 48.203 64.8188 47.7914 65.3341 47.4834H65.3335Z" fill="#342C4B"/>
</g>
</g>
<g id="Group_4">
<path id="Vector_6" d="M1.93998 63.3884V84.6362H0V63.3884H1.93998Z" fill="#342C4B"/>
<path id="Vector_7" d="M7.18301 74.6768V84.6369H5.33618V68.7008H7.13119V71.2009H7.29712C7.67091 70.3846 8.25314 69.7296 9.04555 69.2347C9.83738 68.7404 10.8179 68.4929 11.987 68.4929C13.0589 68.4929 14.0015 68.7159 14.8143 69.1619C15.6271 69.6079 16.2599 70.2635 16.7129 71.1281C17.1659 71.9927 17.3924 73.0547 17.3924 74.3134V84.6363H15.5455V74.4276C15.5455 73.1205 15.1805 72.0864 14.451 71.3255C13.7214 70.5645 12.7444 70.1843 11.52 70.1843C10.6834 70.1843 9.93927 70.3642 9.28951 70.724C8.63916 71.0838 8.12563 71.6008 7.74893 72.2751C7.37165 72.9493 7.18359 73.7499 7.18359 74.6768H7.18301Z" fill="#342C4B"/>
<path id="Vector_8" d="M23.7926 64.9242C24.2281 64.4748 24.847 64.25 25.6499 64.25C25.9544 64.25 26.2065 64.2756 26.4074 64.328C26.6076 64.3799 26.7771 64.4299 26.9156 64.4783L27.4554 62.8597C27.2685 62.7764 27.0146 62.6972 26.6926 62.621C26.3713 62.5447 25.9678 62.5068 25.4839 62.5068C24.7643 62.5068 24.0831 62.6571 23.4403 62.9581C22.797 63.2591 22.2765 63.7033 21.8788 64.2914C21.4811 64.8794 21.282 65.602 21.282 66.4596V68.7006H18.8337V70.3087H21.282V84.6367H23.1288L23.137 70.3087H26.6664V68.7006H23.1381L23.1393 66.8433C23.1393 66.013 23.3571 65.3737 23.7932 64.9237L23.7926 64.9242Z" fill="#342C4B"/>
<path id="Vector_9" d="M28.6677 84.6368V68.7006H30.4627V71.1489H30.5978C30.9157 70.3466 31.4712 69.698 32.263 69.2037C33.0548 68.7094 33.9526 68.4619 34.9552 68.4619C35.1072 68.4619 35.2766 68.4654 35.4635 68.4724C35.6504 68.4794 35.8058 68.4864 35.9304 68.4934V70.371C35.8472 70.3571 35.7022 70.3367 35.4949 70.3087C35.2877 70.2814 35.0623 70.2674 34.8207 70.2674C33.9904 70.2674 33.2522 70.4421 32.6059 70.7914C31.9591 71.1407 31.449 71.6234 31.0758 72.2388C30.702 72.8548 30.5157 73.5564 30.5157 74.3447V84.6368H28.6689H28.6677Z" fill="#342C4B"/>
<path id="Vector_10" d="M41.7841 84.9994C40.8229 84.9994 39.9443 84.8108 39.149 84.4341C38.3537 84.0573 37.7208 83.5106 37.2503 82.7945C36.7799 82.0789 36.5447 81.2091 36.5447 80.185C36.5447 79.3966 36.6931 78.7323 36.9907 78.1932C37.2882 77.6534 37.7097 77.2109 38.2564 76.8651C38.8026 76.5192 39.4494 76.2462 40.1964 76.0453C40.9434 75.845 41.7667 75.689 42.6656 75.5784C43.5582 75.4677 44.3133 75.3711 44.9328 75.2878C45.5517 75.2046 46.0239 75.0736 46.3488 74.8937C46.6737 74.7138 46.8367 74.4232 46.8367 74.0221V73.6489C46.8367 72.563 46.5136 71.7071 45.8667 71.0812C45.2199 70.4553 44.2912 70.1421 43.0808 70.1421C41.9326 70.1421 40.997 70.3948 40.2744 70.8996C39.5519 71.4044 39.0448 71.9994 38.7548 72.6841L37.0011 72.0512C37.361 71.1796 37.8588 70.4833 38.4951 69.9605C39.1315 69.4382 39.8442 69.0615 40.6325 68.8298C41.4208 68.598 42.2197 68.4822 43.0289 68.4822C43.6374 68.4822 44.272 68.5619 44.9328 68.7209C45.5931 68.8798 46.2073 69.1552 46.7744 69.5459C47.3415 69.9366 47.8015 70.4798 48.1543 71.175C48.5071 71.8702 48.6835 72.7505 48.6835 73.8154V84.6367H46.8367V82.1156H46.7226C46.5014 82.5861 46.173 83.0425 45.7369 83.485C45.3014 83.9275 44.7547 84.2908 44.0979 84.5744C43.4406 84.8579 42.6697 85 41.7841 85V84.9994ZM42.0328 83.3086C43.015 83.3086 43.8656 83.0909 44.5852 82.6548C45.3043 82.2193 45.8597 81.6399 46.2504 80.9168C46.6411 80.1943 46.8367 79.3966 46.8367 78.5256V76.2223C46.6981 76.3539 46.4682 76.4715 46.1468 76.5751C45.8254 76.6788 45.4551 76.7708 45.0365 76.85C44.6178 76.9297 44.201 76.9973 43.7864 77.052C43.3713 77.1073 42.9981 77.1556 42.6662 77.197C41.7673 77.3076 40.9993 77.4805 40.3629 77.7157C39.7266 77.951 39.2386 78.2741 38.8998 78.6857C38.5609 79.0974 38.3915 79.6249 38.3915 80.2676C38.3915 81.2359 38.7373 81.9846 39.429 82.5139C40.1207 83.0431 40.9888 83.3074 42.0333 83.3074L42.0328 83.3086Z" fill="#342C4B"/>
<path id="Vector_11" d="M62.5471 72.1968L60.8557 72.6742C60.6897 72.1968 60.4545 71.7648 60.15 71.3776C59.8455 70.9904 59.4496 70.6824 58.9623 70.4542C58.4744 70.2259 57.8712 70.1118 57.1515 70.1118C56.0727 70.1118 55.1871 70.368 54.4954 70.8798C53.8037 71.3916 53.4579 72.0524 53.4579 72.8611C53.4579 73.5458 53.6949 74.1007 54.1688 74.5263C54.6427 74.9519 55.374 75.289 56.3632 75.5376L58.7701 76.1292C60.1052 76.454 61.106 76.9693 61.7739 77.675C62.4411 78.3806 62.7753 79.2656 62.7753 80.3311C62.7753 81.2306 62.5261 82.0295 62.0283 82.7275C61.5305 83.4262 60.7206 83.9741 59.8315 84.3718C58.9425 84.7694 58.0301 84.9685 56.8616 84.9685C55.3053 84.9685 54.0221 84.6175 53.0125 83.9153C52.0023 83.2131 51.3561 82.1983 51.0725 80.8702L52.8466 80.4347C53.0748 81.3826 53.5225 82.0982 54.1903 82.5826C54.8576 83.067 55.7379 83.3086 56.8307 83.3086C58.0552 83.3086 59.0339 83.0338 59.7669 82.4836C60.4999 81.934 60.8667 81.244 60.8667 80.4138C60.8667 79.7704 60.6525 79.2295 60.2234 78.7899C59.7943 78.3509 59.1445 78.0272 58.2729 77.8199L55.6686 77.1975C54.2852 76.8657 53.2617 76.3399 52.5979 75.6203C51.9336 74.9012 51.6018 74.0087 51.6018 72.9438C51.6018 72.0652 51.8405 71.2926 52.3179 70.6248C52.7953 69.9575 53.4521 69.4335 54.2893 69.0528C55.126 68.6726 56.0808 68.4822 57.1527 68.4822C58.6118 68.4822 59.7791 68.8123 60.6542 69.4731C61.5293 70.134 62.1605 71.0417 62.5476 72.1968H62.5471Z" fill="#342C4B"/>
<path id="Vector_12" d="M71.7525 82.9245C71.6209 82.9594 71.4689 82.992 71.296 83.0229C71.1231 83.0537 70.9158 83.0695 70.6736 83.0695C70.2585 83.0695 69.8678 82.9914 69.501 82.836C69.1342 82.6805 68.8367 82.4145 68.6084 82.0372C68.3802 81.6605 68.2661 81.14 68.2661 80.4756V70.3082H71.6378V68.7001H68.2661V64.8818H66.4088V68.7001H64.0327V70.3082H66.4088V80.9117C66.4088 81.7833 66.6091 82.5129 67.0102 83.1009C67.4114 83.689 67.9249 84.1314 68.5508 84.429C69.1767 84.7265 69.8282 84.875 70.5065 84.875C70.8937 84.875 71.2186 84.8453 71.4817 84.787C71.7443 84.7282 71.9656 84.6642 72.1455 84.5949L71.7513 82.9245H71.7525Z" fill="#342C4B"/>
<path id="Vector_13" d="M74.7778 84.6368V68.7006H76.5728V71.1489H76.7079C77.0258 70.3466 77.5813 69.698 78.3731 69.2037C79.1649 68.7094 80.0627 68.4619 81.0653 68.4619C81.2173 68.4619 81.3867 68.4654 81.5736 68.4724C81.7605 68.4794 81.9159 68.4864 82.0405 68.4934V70.371C81.9579 70.3571 81.8123 70.3367 81.605 70.3087C81.3978 70.2814 81.1724 70.2674 80.9308 70.2674C80.1006 70.2674 79.3623 70.4421 78.716 70.7914C78.0692 71.1407 77.5591 71.6234 77.1859 72.2388C76.8127 72.8548 76.6258 73.5564 76.6258 74.3447V84.6368H74.779H74.7778Z" fill="#342C4B"/>
<path id="Vector_14" d="M94.2649 78.5467V68.7007H96.1118V84.6368H94.2649V81.9912H94.12C93.7467 82.8075 93.1552 83.4869 92.3459 84.0302C91.5366 84.5734 90.5474 84.8447 89.3789 84.8447C88.3623 84.8447 87.4593 84.6217 86.6709 84.1757C85.8826 83.7297 85.2631 83.0741 84.8136 82.2095C84.3641 81.3449 84.1394 80.2835 84.1394 79.0242V68.7013H85.9862V78.9101C85.9862 80.1549 86.3525 81.1563 87.0861 81.9138C87.8191 82.6712 88.76 83.0497 89.9081 83.0497C90.6272 83.0497 91.3189 82.8768 91.9832 82.5309C92.6469 82.1851 93.1936 81.6785 93.6221 81.0107C94.0507 80.3435 94.2655 79.522 94.2655 78.5467H94.2649Z" fill="#342C4B"/>
<path id="Vector_15" d="M105.928 84.9687C104.503 84.9687 103.263 84.6124 102.208 83.9003C101.153 83.1882 100.336 82.213 99.7549 80.9746C99.1738 79.7368 98.8833 78.3255 98.8833 76.7418C98.8833 75.1581 99.1791 73.723 99.7706 72.4776C100.362 71.2328 101.183 70.2558 102.235 69.5466C103.286 68.8375 104.506 68.4829 105.897 68.4829C106.962 68.4829 107.926 68.689 108.792 69.1001C109.656 69.5117 110.37 70.0893 110.934 70.8328C111.498 71.5763 111.852 72.4426 111.998 73.4318H110.13C109.936 72.5329 109.471 71.7632 108.735 71.1233C107.998 70.4834 107.062 70.1638 105.928 70.1638C104.912 70.1638 104.012 70.4386 103.231 70.9888C102.449 71.5384 101.839 72.3029 101.4 73.2816C100.96 74.2604 100.741 75.3928 100.741 76.6795C100.741 77.9662 100.955 79.1161 101.384 80.1083C101.812 81.101 102.416 81.8771 103.194 82.4372C103.972 82.9973 104.884 83.2773 105.928 83.2773C106.633 83.2773 107.278 83.144 107.862 82.8779C108.447 82.6118 108.938 82.2328 109.335 81.742C109.733 81.2512 110.001 80.6666 110.14 79.9889H112.007C111.869 80.9502 111.528 81.806 110.985 82.5565C110.442 83.307 109.741 83.8968 108.88 84.3253C108.018 84.7538 107.034 84.9687 105.928 84.9687Z" fill="#342C4B"/>
<path id="Vector_16" d="M121.066 82.9245C120.935 82.9594 120.783 82.992 120.61 83.0229C120.437 83.0537 120.229 83.0695 119.987 83.0695C119.572 83.0695 119.181 82.9914 118.815 82.836C118.448 82.6805 118.151 82.4145 117.923 82.0372C117.694 81.6605 117.58 81.14 117.58 80.4756V70.3082H120.952V68.7001H117.58V64.8818H115.723V68.7001H113.347V70.3082H115.723V80.9117C115.723 81.7833 115.923 82.5129 116.325 83.1009C116.726 83.689 117.24 84.1314 117.866 84.429C118.491 84.7265 119.144 84.875 119.821 84.875C120.208 84.875 120.533 84.8453 120.797 84.787C121.059 84.7282 121.28 84.6642 121.46 84.5949L121.066 82.9245Z" fill="#342C4B"/>
<path id="Vector_17" d="M133.575 78.5467V68.7007H135.422V84.6368H133.575V81.9912H133.43C133.057 82.8075 132.465 83.4869 131.656 84.0302C130.847 84.5734 129.858 84.8447 128.689 84.8447C127.673 84.8447 126.77 84.6217 125.981 84.1757C125.193 83.7297 124.573 83.0741 124.124 82.2095C123.674 81.3449 123.45 80.2835 123.45 79.0242V68.7013H125.297V78.9101C125.297 80.1549 125.663 81.1563 126.396 81.9138C127.129 82.6712 128.07 83.0497 129.218 83.0497C129.937 83.0497 130.629 82.8768 131.293 82.5309C131.957 82.1851 132.504 81.6785 132.933 81.0107C133.362 80.3435 133.576 79.522 133.576 78.5467H133.575Z" fill="#342C4B"/>
<path id="Vector_18" d="M139.358 84.6368V68.7006H141.153V71.1489H141.288C141.606 70.3466 142.161 69.698 142.953 69.2037C143.745 68.7094 144.643 68.4619 145.645 68.4619C145.797 68.4619 145.967 68.4654 146.154 68.4724C146.341 68.4794 146.496 68.4864 146.621 68.4934V70.371C146.538 70.3571 146.392 70.3367 146.185 70.3087C145.978 70.2814 145.753 70.2674 145.511 70.2674C144.681 70.2674 143.942 70.4421 143.296 70.7914C142.649 71.1407 142.139 71.6234 141.766 72.2388C141.393 72.8548 141.206 73.5564 141.206 74.3447V84.6368H139.359H139.358Z" fill="#342C4B"/>
<path id="Vector_19" d="M160.723 76.3056C160.723 74.9705 160.537 73.8136 160.163 72.8349C159.79 71.8562 159.283 71.0434 158.643 70.3965C158.003 69.7497 157.282 69.2693 156.48 68.9544C155.678 68.64 154.844 68.4822 153.979 68.4822C152.603 68.4822 151.391 68.8368 150.343 69.5459C149.295 70.2551 148.475 71.2338 147.884 72.4821C147.293 73.731 146.997 75.1574 146.997 76.762C146.997 78.3667 147.293 79.7966 147.884 81.0315C148.476 82.2664 149.314 83.2312 150.4 83.9263C151.486 84.6215 152.773 84.9691 154.26 84.9691C155.324 84.9691 156.267 84.7979 157.087 84.4556C157.907 84.1132 158.591 83.6585 159.141 83.0914C159.691 82.5243 160.086 81.9054 160.329 81.2341L158.576 80.6635C158.375 81.141 158.08 81.5782 157.688 81.9759C157.298 82.3735 156.817 82.6903 156.246 82.9249C155.676 83.1601 155.013 83.2777 154.26 83.2777C153.153 83.2777 152.195 83.0181 151.386 82.4999C150.576 81.9811 149.952 81.2499 149.513 80.3055C149.1 79.4187 148.882 78.3899 148.857 77.2191H160.723V76.3062V76.3056ZM148.869 75.5894C148.925 74.701 149.139 73.8742 149.513 73.1097C149.945 72.2247 150.546 71.5121 151.313 70.9724C152.081 70.4326 152.97 70.1631 153.98 70.1631C154.934 70.1631 155.777 70.4018 156.506 70.8792C157.236 71.3566 157.806 72.0047 158.218 72.8244C158.63 73.6442 158.835 74.5659 158.835 75.5894H148.869Z" fill="#342C4B"/>
</g>
<path id="Vector_20" d="M227.684 0L194.127 33.5992H146.621V38.618H192.639V84.6367H197.658V37.1292L231.257 3.53005L227.684 0Z" fill="#BCF100"/>
</g>
</svg>
